<svg width="25" height="24" fill="none" xmlns="http://www.w3.org/2000/svg"><mask id="mask0_0_13" style="mask-type:luminance" maskUnits="userSpaceOnUse" x="0" y="0" width="25" height="24"><path fill-rule="evenodd" clip-rule="evenodd" d="M.538 23.99h23.99V0H.539v23.99Z" fill="#fff"/></mask><g mask="url('#mask0_0_13')"><path fill-rule="evenodd" clip-rule="evenodd" d="M23.205 0H1.863C1.13 0 .538.593.538 1.324v21.342c0 .732.593 1.325 1.325 1.325h11.49V14.7h-3.127v-3.622h3.127V8.41c0-3.098 1.892-4.786 4.656-4.786 1.324 0 2.462.099 2.794.143v3.238l-1.917.001c-1.503 0-1.794.715-1.794 1.763v2.311h3.585L20.21 14.7h-3.119v9.29h6.114c.731 0 1.324-.592 1.324-1.324V1.324C24.529.593 23.936 0 23.205 0Z" fill="#fff"/></g></svg>