<svg width="28" height="19" fill="none" xmlns="http://www.w3.org/2000/svg"><path fill-rule="evenodd" clip-rule="evenodd" d="M8.911 7.475v2.929h4.755c-.191 1.257-1.437 3.685-4.755 3.685-2.863 0-5.199-2.416-5.199-5.393 0-2.978 2.336-5.393 5.199-5.393 1.629 0 2.72.707 3.342 1.317l2.276-2.233C13.068.997 11.175.155 8.91.155 4.275.155.526 3.974.526 8.695c0 4.723 3.75 8.541 8.385 8.541 4.84 0 8.05-3.465 8.05-8.345 0-.562-.06-.989-.132-1.416H8.91ZM26.879 7.475h-2.396v-2.44h-2.396v2.44h-2.395v2.44h2.395v2.441h2.396v-2.44h2.396" fill="#EBCB80"/></svg>