<svg width="24" height="24" fill="none" xmlns="http://www.w3.org/2000/svg"><mask id="mask0_0_16" style="mask-type:luminance" maskUnits="userSpaceOnUse" x="0" y="0" width="24" height="24"><path fill-rule="evenodd" clip-rule="evenodd" d="M0 23.995h24V0H0v23.995Z" fill="#fff"/></mask><g mask="url('#mask0_0_16')"><path fill-rule="evenodd" clip-rule="evenodd" d="M21.333 6.667a.667.667 0 0 1-.666.666h-3.334a.667.667 0 0 1-.666-.666V3.333c0-.368.298-.666.666-.666h3.334c.368 0 .666.298.666.666v3.334Zm0 14a.667.667 0 0 1-.666.666H3.333a.667.667 0 0 1-.666-.666V10h2.276a7.333 7.333 0 1 0 14.114 0h2.276v10.667ZM12 7.333a4.667 4.667 0 1 1 0 9.334 4.667 4.667 0 0 1 0-9.334ZM20.667 0H3.333A3.333 3.333 0 0 0 0 3.333v17.334A3.333 3.333 0 0 0 3.333 24h17.334A3.333 3.333 0 0 0 24 20.667V3.333A3.333 3.333 0 0 0 20.667 0Z" fill="#fff"/></g></svg>