<svg width="38" height="50" fill="none" xmlns="http://www.w3.org/2000/svg"><path clip-rule="evenodd" d="M23.535 2.997a3.45 3.45 0 0 0-4.87-.23L2.997 17.028a3.45 3.45 0 0 0-.23 4.87l12.16 13.36a3.45 3.45 0 0 0 4.87.23l15.668-14.26a3.45 3.45 0 0 0 .23-4.87l-12.16-13.36Z" stroke="#4B4B4B" stroke-width="2" stroke-linecap="round" stroke-linejoin="round"/><path d="M2.899 24.371a3.315 3.315 0 0 0-.22 4.683L14.368 41.9a3.315 3.315 0 0 0 4.683.22l15.065-13.71a3.315 3.315 0 0 0 .22-4.683" stroke="#4B4B4B" stroke-width="2" stroke-linecap="round" stroke-linejoin="round"/><path d="M2.86 30.621a3.264 3.264 0 0 0-.216 4.61l11.509 12.647a3.264 3.264 0 0 0 4.61.217l14.831-13.497a3.264 3.264 0 0 0 .217-4.61M8.592 18.945l12-11" stroke="#4B4B4B" stroke-width="2" stroke-linecap="round" stroke-linejoin="round"/></svg>