<svg width="20" height="19" fill="none" xmlns="http://www.w3.org/2000/svg"><path fill-rule="evenodd" clip-rule="evenodd" d="M16.4 15.423h-2.736v-4.159c0-.991-.018-2.267-1.422-2.267-1.424 0-1.642 1.08-1.642 2.197v4.229H7.867V6.872h2.623V8.04h.038c.365-.672 1.258-1.381 2.59-1.381 2.77 0 3.283 1.77 3.283 4.073v4.69ZM4.78 5.703c-.878 0-1.587-.69-1.587-1.54 0-.851.709-1.542 1.588-1.542.875 0 1.586.69 1.586 1.541s-.71 1.542-1.586 1.542Zm-1.37 9.72h2.74V6.872H3.41v8.55ZM17.763.155H2.037C1.287.155.676.733.676 1.447V16.78c0 .713.61 1.293 1.361 1.293h15.726c.753 0 1.365-.58 1.365-1.293V1.447c0-.714-.612-1.292-1.365-1.292Z" fill="#EBCB80"/></svg>