<svg width="55" height="46" fill="none" xmlns="http://www.w3.org/2000/svg"><path clip-rule="evenodd" d="M1 5a4 4 0 0 1 4-4h37a4 4 0 0 1 4 4v21.256a4 4 0 0 1-4 4H5a4 4 0 0 1-4-4V5Z" stroke="#4B4B4B" stroke-width="2"/><path d="M26.799 30.714v5.334M19.739 30.714v5.334M29.099 36.909h-11.5" stroke="#4B4B4B" stroke-width="2" stroke-linecap="round" stroke-linejoin="round"/><path fill-rule="evenodd" clip-rule="evenodd" d="M32 15a4 4 0 0 1 4-4h14a4 4 0 0 1 4 4v26a4 4 0 0 1-4 4H36a4 4 0 0 1-4-4V15Z" fill="#fff" stroke="#4B4B4B" stroke-width="2"/><path d="M32.555 36.486h21.242" stroke="#4B4B4B" stroke-width="2" stroke-linecap="round" stroke-linejoin="round"/><path fill-rule="evenodd" clip-rule="evenodd" d="M43.38 38.956c.837 0 1.517.677 1.517 1.51 0 .835-.68 1.512-1.518 1.512a1.515 1.515 0 0 1-1.517-1.511c0-.834.68-1.511 1.517-1.511Z" fill="#4B4B4B"/></svg>