<svg width="24" height="19" fill="none" xmlns="http://www.w3.org/2000/svg"><mask id="mask0_0_80" style="mask-type:luminance" maskUnits="userSpaceOnUse" x="0" y="0" width="24" height="19"><path fill-rule="evenodd" clip-rule="evenodd" d="M.587 18.068h22.512V.22H.587v17.847Z" fill="#fff"/></mask><g mask="url('#mask0_0_80')"><path fill-rule="evenodd" clip-rule="evenodd" d="M23.1 2.334c-.83.358-1.72.6-2.654.71A4.542 4.542 0 0 0 22.477.55a9.394 9.394 0 0 1-2.933 1.094A4.669 4.669 0 0 0 16.172.22c-2.552 0-4.62 2.017-4.62 4.506 0 .354.04.697.12 1.027a13.227 13.227 0 0 1-9.523-4.708 4.402 4.402 0 0 0-.625 2.265c0 1.564.816 2.943 2.055 3.751A4.69 4.69 0 0 1 1.487 6.5v.056c0 2.184 1.592 4.006 3.705 4.42a4.73 4.73 0 0 1-2.086.077c.588 1.79 2.294 3.093 4.315 3.13a9.418 9.418 0 0 1-5.737 1.929c-.373 0-.74-.021-1.102-.063a13.315 13.315 0 0 0 7.082 2.025c8.497 0 13.143-6.868 13.143-12.823 0-.196-.004-.39-.013-.583a9.267 9.267 0 0 0 2.305-2.333Z" fill="#EBCB80"/></g></svg>