<svg width="19" height="19" viewBox="0 0 19 19" fill="none" xmlns="http://www.w3.org/2000/svg">
<mask id="mask0_0_148" style="mask-type:luminance" maskUnits="userSpaceOnUse" x="0" y="0" width="19" height="19">
<path fill-rule="evenodd" clip-rule="evenodd" d="M0.699097 18.4293H18.6595V0.518188H0.699097V18.4293Z" fill="white"/>
</mask>
<g mask="url(#mask0_0_148)">
<path fill-rule="evenodd" clip-rule="evenodd" d="M17.6683 0.518188H1.69034C1.14284 0.518188 0.699097 0.960707 0.699097 1.50671V17.4407C0.699097 17.9867 1.14284 18.4293 1.69034 18.4293H10.2924V11.4932H7.95174V8.79001H10.2924V6.79653C10.2924 4.48314 11.7092 3.22343 13.7786 3.22343C14.7699 3.22343 15.6219 3.29698 15.8701 3.32987V5.74755L14.4349 5.74822C13.3094 5.74822 13.0915 6.28153 13.0915 7.06416V8.79001H15.7756L15.4262 11.4932H13.0915V18.4293H17.6683C18.2157 18.4293 18.6595 17.9867 18.6595 17.4407V1.50671C18.6595 0.960707 18.2157 0.518188 17.6683 0.518188Z" fill="#EBCB80"/>
</g>
</svg>
