<svg width="19" height="19" fill="none" xmlns="http://www.w3.org/2000/svg"><mask id="mask0_0_148" style="mask-type:luminance" maskUnits="userSpaceOnUse" x="0" y="0" width="19" height="19"><path fill-rule="evenodd" clip-rule="evenodd" d="M.7 18.43h17.96V.517H.7V18.43Z" fill="#fff"/></mask><g mask="url('#mask0_0_148')"><path fill-rule="evenodd" clip-rule="evenodd" d="M17.668.518H1.69a.99.99 0 0 0-.99.989V17.44a.99.99 0 0 0 .99.988h8.602v-6.936h-2.34V8.79h2.34V6.797c0-2.314 1.417-3.574 3.487-3.574.99 0 1.843.074 2.091.107v2.418h-1.435c-1.126 0-1.344.534-1.344 1.316V8.79h2.685l-.35 2.703h-2.335v6.936h4.577a.99.99 0 0 0 .992-.988V1.507a.99.99 0 0 0-.992-.989Z" fill="#EBCB80"/></g></svg>