<svg width="28" height="19" viewBox="0 0 28 19" fill="none" xmlns="http://www.w3.org/2000/svg">
<path fill-rule="evenodd" clip-rule="evenodd" d="M8.91099 7.4754V10.4037H13.6664C13.4747 11.6605 12.229 14.0886 8.91099 14.0886C6.04816 14.0886 3.71237 11.6727 3.71237 8.69554C3.71237 5.71839 6.04816 3.30251 8.91099 3.30251C10.54 3.30251 11.6301 4.01019 12.253 4.62026L14.5288 2.3874C13.0675 0.99644 11.1749 0.154541 8.91099 0.154541C4.27536 0.154541 0.526123 3.97359 0.526123 8.69554C0.526123 13.4175 4.27536 17.2365 8.91099 17.2365C13.7503 17.2365 16.9605 13.7713 16.9605 8.89076C16.9605 8.3295 16.9006 7.90245 16.8287 7.4754H8.91099Z" fill="#EBCB80"></path>
<path fill-rule="evenodd" clip-rule="evenodd" d="M26.8786 7.47538H24.4829V5.0351H22.0872V7.47538H19.6915V9.91567H22.0872V12.356H24.4829V9.91567H26.8786" fill="#EBCB80"></path>
</svg>
