<svg width="20" height="19" viewBox="0 0 20 19" fill="none" xmlns="http://www.w3.org/2000/svg">
<path fill-rule="evenodd" clip-rule="evenodd" d="M16.4005 15.4228H13.6643V11.2643C13.6643 10.2729 13.6463 8.99718 12.2418 8.99718C10.8179 8.99718 10.6005 10.0777 10.6005 11.1936V15.4228H7.86688V6.87188H10.4903V8.04104H10.5277C10.8927 7.36861 11.7861 6.65985 13.1178 6.65985C15.8884 6.65985 16.4005 8.43027 16.4005 10.7333V15.4228ZM4.7806 5.7037C3.90151 5.7037 3.19312 5.01335 3.19312 4.16224C3.19312 3.31162 3.90151 2.62128 4.7806 2.62128C5.6561 2.62128 6.36706 3.31162 6.36706 4.16224C6.36706 5.01335 5.6561 5.7037 4.7806 5.7037ZM3.41046 15.4228H6.14973V6.87189H3.41046V15.4228ZM17.7634 0.154541H2.03722C1.28627 0.154541 0.675781 0.7329 0.675781 1.44664V16.7796C0.675781 17.4934 1.28627 18.0727 2.03722 18.0727H17.7634C18.5164 18.0727 19.1284 17.4934 19.1284 16.7796V1.44664C19.1284 0.7329 18.5164 0.154541 17.7634 0.154541Z" fill="#EBCB80"></path>
</svg>
