<svg width="24" height="19" viewBox="0 0 24 19" fill="none" xmlns="http://www.w3.org/2000/svg">
<mask id="mask0_0_80" style="mask-type: luminance" maskUnits="userSpaceOnUse" x="0" y="0" width="24" height="19">
<path fill-rule="evenodd" clip-rule="evenodd" d="M0.586914 18.0679H23.0991V0.220581H0.586914V18.0679Z" fill="white"></path>
</mask>
<g mask="url('#mask0_0_80')">
<path fill-rule="evenodd" clip-rule="evenodd" d="M23.0991 2.33388C22.2706 2.69233 21.3802 2.93458 20.4458 3.04354C21.3996 2.48574 22.132 1.60253 22.477 0.550179C21.5844 1.06659 20.5957 1.44167 19.5435 1.64383C18.7007 0.767929 17.5001 0.220581 16.1715 0.220581C13.6201 0.220581 11.5517 2.23843 11.5517 4.72728C11.5517 5.08051 11.5926 5.42449 11.6713 5.75433C7.83193 5.56639 4.42797 3.77216 2.14949 1.04554C1.75185 1.71116 1.52403 2.48534 1.52403 3.31127C1.52403 4.87481 2.33967 6.25427 3.57923 7.06243C2.8219 7.03905 2.10963 6.83633 1.48672 6.49877C1.48639 6.51758 1.48639 6.53646 1.48639 6.55542C1.48639 8.73903 3.07879 10.5606 5.19213 10.9745C4.80445 11.0776 4.39634 11.1326 3.97498 11.1326C3.67732 11.1326 3.3879 11.1044 3.10589 11.0518C3.69371 12.8423 5.39977 14.1453 7.42127 14.1817C5.84024 15.3904 3.8483 16.1109 1.68398 16.1109C1.31113 16.1109 0.943377 16.0896 0.58197 16.048C2.62637 17.3267 5.05467 18.0727 7.6635 18.0727C16.1607 18.0727 20.8072 11.2054 20.8072 5.24989C20.8072 5.05447 20.8028 4.8601 20.7939 4.66686C21.6964 4.03145 22.4797 3.23767 23.0991 2.33388Z" fill="#EBCB80"></path>
</g>
</svg>
